<?xml version="1.0" encoding="UTF-8" standalone="no"?>
<!DOCTYPE svg PUBLIC "-//W3C//DTD SVG 1.1//EN" "http://www.w3.org/Graphics/SVG/1.1/DTD/svg11.dtd">
<svg width="100%" height="100%" viewBox="0 0 1280 720" version="1.1" xmlns="http://www.w3.org/2000/svg" xmlns:xlink="http://www.w3.org/1999/xlink" xml:space="preserve" xmlns:serif="http://www.serif.com/" style="fill-rule:evenodd;clip-rule:evenodd;stroke-linejoin:round;stroke-miterlimit:2;">
    <rect id="Artboard1" x="0" y="0" width="1280" height="720" style="fill:none;"/>
    <clipPath id="_clip1">
        <rect id="Artboard11" serif:id="Artboard1" x="0" y="0" width="1280" height="720"/>
    </clipPath>
    <g clip-path="url(#_clip1)">
        <g transform="matrix(1,0,0,1,-131.249,199.108)">
            <rect x="275.199" y="89.042" width="143.95" height="143.95" style="fill:rgb(235,235,235);"/>
        </g>
        <g transform="matrix(1,0,0,1,12.7015,199.108)">
            <rect x="275.199" y="89.042" width="143.95" height="143.95" style="fill:rgb(134,132,210);"/>
        </g>
        <g transform="matrix(1,0,0,1,-275.199,199.108)">
            <rect x="275.199" y="89.042" width="143.95" height="143.95" style="fill:rgb(102,103,112);"/>
        </g>
        <g transform="matrix(1,0,0,1,-275.199,343.058)">
            <rect x="275.199" y="89.042" width="143.95" height="143.95" style="fill:rgb(159,160,165);"/>
        </g>
        <g transform="matrix(1,0,0,1,-275.199,487.008)">
            <rect x="275.199" y="89.042" width="143.95" height="143.95" style="fill:rgb(207,207,210);"/>
        </g>
        <g transform="matrix(1,0,0,1,-131.249,199.108)">
            <rect x="275.199" y="89.042" width="143.95" height="143.95" style="fill:rgb(105,165,229);"/>
        </g>
        <g transform="matrix(1,0,0,1,-131.249,343.058)">
            <rect x="275.199" y="89.042" width="143.95" height="143.95" style="fill:rgb(160,202,244);"/>
        </g>
        <g transform="matrix(1,0,0,1,300.602,199.108)">
            <rect x="275.199" y="89.042" width="143.95" height="143.95" style="fill:rgb(227,239,165);"/>
        </g>
        <g transform="matrix(1,0,0,1,12.7015,55.1572)">
            <rect x="275.199" y="89.042" width="143.95" height="143.95" style="fill:rgb(114,113,188);"/>
        </g>
        <g transform="matrix(1,0,0,1,156.652,55.1572)">
            <rect x="275.199" y="89.042" width="143.95" height="143.95" style="fill:rgb(71,187,162);"/>
        </g>
        <g transform="matrix(1,0,0,1,156.652,199.108)">
            <rect x="275.199" y="89.042" width="143.95" height="143.95" style="fill:rgb(98,211,186);"/>
        </g>
        <g transform="matrix(1,0,0,1,156.652,343.058)">
            <rect x="275.199" y="89.042" width="143.95" height="143.95" style="fill:rgb(150,234,214);"/>
        </g>
        <g transform="matrix(1,0,0,1,156.652,487.008)">
            <rect x="275.199" y="89.042" width="143.95" height="143.95" style="fill:rgb(200,247,237);"/>
        </g>
        <g transform="matrix(1,0,0,1,655.734,89.605)">
            <rect x="275.199" y="89.042" width="143.95" height="143.95" style="fill:rgb(200,247,237);"/>
        </g>
        <g transform="matrix(1,0,0,1,-1.97284,-2.41873)">
            <path d="M1005.14,242.156L1036.72,210.572C1039.47,207.828 1043.92,207.828 1046.66,210.572C1046.66,210.573 1046.66,210.574 1046.67,210.574C1049.41,213.319 1049.41,217.769 1046.67,220.514L1015.08,252.097L1046.67,283.681C1049.41,286.426 1049.41,290.875 1046.67,293.62C1046.66,293.621 1046.66,293.622 1046.66,293.622C1043.92,296.367 1039.47,296.367 1036.72,293.622L1005.14,262.039L973.557,293.622C970.812,296.367 966.363,296.367 963.618,293.622C963.617,293.622 963.617,293.621 963.616,293.62C960.871,290.875 960.871,286.426 963.616,283.681L995.199,252.097L963.616,220.514C960.871,217.769 960.871,213.319 963.616,210.574C963.617,210.574 963.617,210.573 963.618,210.572C966.363,207.828 970.812,207.828 973.557,210.572L1005.14,242.156Z" style="fill:rgb(42,42,50);fill-opacity:0.47;"/>
        </g>
        <g transform="matrix(1,0,0,1,-275.199,55.1572)">
            <rect x="275.199" y="89.042" width="143.95" height="143.95" style="fill:rgb(64,65,76);"/>
        </g>
        <g transform="matrix(1,0,0,1,-131.249,55.1572)">
            <rect x="275.199" y="89.042" width="143.95" height="143.95" style="fill:rgb(87,148,214);"/>
        </g>
        <g transform="matrix(1,0,0,1,300.602,55.1572)">
            <rect x="275.199" y="89.042" width="143.95" height="143.95" style="fill:rgb(215,228,149);"/>
        </g>
        <g transform="matrix(1,0,0,1,12.7015,-89.0416)">
            <rect x="275.199" y="89.042" width="143.95" height="143.95" style="fill:rgb(73,72,152);"/>
        </g>
        <g transform="matrix(1,0,0,1,156.652,-89.0416)">
            <rect x="275.199" y="89.042" width="143.95" height="143.95" style="fill:rgb(43,131,112);"/>
        </g>
        <g transform="matrix(1,0,0,1,-275.199,-89.0416)">
            <rect x="275.199" y="89.042" width="143.95" height="143.95" style="fill:rgb(42,42,50);"/>
        </g>
        <g transform="matrix(1,0,0,1,-131.249,-89.0416)">
            <rect x="275.199" y="89.042" width="143.95" height="143.95" style="fill:rgb(28,96,169);"/>
        </g>
        <g transform="matrix(1,0,0,1,300.602,-89.0416)">
            <rect x="275.199" y="89.042" width="143.95" height="143.95" style="fill:rgb(215,228,149);"/>
        </g>
        <g transform="matrix(1,0,0,1,12.7015,487.008)">
            <rect x="275.199" y="89.042" width="143.95" height="143.95" style="fill:rgb(210,208,249);"/>
        </g>
        <g transform="matrix(1,0,0,1,655.734,233.555)">
            <rect x="275.199" y="89.042" width="143.95" height="143.95" style="fill:rgb(210,208,249);"/>
        </g>
        <g transform="matrix(1,0,0,1,-131.249,487.008)">
            <rect x="275.199" y="89.042" width="143.95" height="143.95" style="fill:rgb(205,229,252);"/>
        </g>
        <g transform="matrix(1,0,0,1,655.734,377.506)">
            <rect x="275.199" y="89.042" width="143.95" height="143.95" style="fill:rgb(205,229,252);"/>
        </g>
        <g transform="matrix(1,0,0,1,300.602,487.008)">
            <rect x="275.199" y="89.042" width="143.95" height="143.95" style="fill:rgb(249,253,224);"/>
        </g>
        <g transform="matrix(1,0,0,1,12.7015,343.058)">
            <rect x="275.199" y="89.042" width="143.95" height="143.95" style="fill:rgb(173,173,232);"/>
        </g>
        <g transform="matrix(1,0,0,1,300.602,343.058)">
            <rect x="275.199" y="89.042" width="143.95" height="143.95" style="fill:rgb(239,248,195);"/>
        </g>
        <g transform="matrix(1,0,0,1,-1.97284,151.486)">
            <path d="M1005.14,242.156L1036.72,210.572C1039.47,207.828 1043.92,207.828 1046.66,210.572C1046.66,210.573 1046.66,210.574 1046.67,210.574C1049.41,213.319 1049.41,217.769 1046.67,220.514L1015.08,252.097L1046.67,283.681C1049.41,286.426 1049.41,290.875 1046.67,293.62C1046.66,293.621 1046.66,293.622 1046.66,293.622C1043.92,296.367 1039.47,296.367 1036.72,293.622L1005.14,262.039L973.557,293.622C970.812,296.367 966.363,296.367 963.618,293.622C963.617,293.622 963.617,293.621 963.616,293.62C960.871,290.875 960.871,286.426 963.616,283.681L995.199,252.097L963.616,220.514C960.871,217.769 960.871,213.319 963.616,210.574C963.617,210.574 963.617,210.573 963.618,210.572C966.363,207.828 970.812,207.828 973.557,210.572L1005.14,242.156Z" style="fill:rgb(42,42,50);fill-opacity:0.47;"/>
        </g>
    </g>
</svg>
