<?xml version="1.0" encoding="UTF-8" standalone="no"?>
<!DOCTYPE svg PUBLIC "-//W3C//DTD SVG 1.1//EN" "http://www.w3.org/Graphics/SVG/1.1/DTD/svg11.dtd">
<svg width="100%" height="100%" viewBox="0 0 88 88" version="1.1" xmlns="http://www.w3.org/2000/svg" xmlns:xlink="http://www.w3.org/1999/xlink" xml:space="preserve" xmlns:serif="http://www.serif.com/" style="fill-rule:evenodd;clip-rule:evenodd;stroke-linejoin:round;stroke-miterlimit:2;">
    <g transform="matrix(1,0,0,1,-961.557,-208.514)">
        <path d="M1005.14,242.156L1036.72,210.572C1039.47,207.828 1043.92,207.828 1046.66,210.572C1046.66,210.573 1046.66,210.574 1046.67,210.574C1049.41,213.319 1049.41,217.769 1046.67,220.514L1015.08,252.097L1046.67,283.681C1049.41,286.426 1049.41,290.875 1046.67,293.62C1046.66,293.621 1046.66,293.622 1046.66,293.622C1043.92,296.367 1039.47,296.367 1036.72,293.622L1005.14,262.039L973.557,293.622C970.812,296.367 966.363,296.367 963.618,293.622C963.617,293.622 963.617,293.621 963.616,293.62C960.871,290.875 960.871,286.426 963.616,283.681L995.199,252.097L963.616,220.514C960.871,217.769 960.871,213.319 963.616,210.574C963.617,210.574 963.617,210.573 963.618,210.572C966.363,207.828 970.812,207.828 973.557,210.572L1005.14,242.156Z" style="fill:rgb(42,42,50);"/>
    </g>
</svg>
