<?xml version="1.0" encoding="UTF-8" standalone="no"?>
<!DOCTYPE svg PUBLIC "-//W3C//DTD SVG 1.1//EN" "http://www.w3.org/Graphics/SVG/1.1/DTD/svg11.dtd">
<svg width="100%" height="100%" viewBox="0 0 88 88" version="1.1" xmlns="http://www.w3.org/2000/svg" xmlns:xlink="http://www.w3.org/1999/xlink" xml:space="preserve" xmlns:serif="http://www.serif.com/" style="fill-rule:evenodd;clip-rule:evenodd;stroke-linejoin:round;stroke-miterlimit:2;">
    <g transform="matrix(1,0,0,1,-95.0711,0)">
        <g id="Artboard2" transform="matrix(1,0,0,1,-58.7625,0)">
            <rect x="153.834" y="0" width="87.167" height="87.167" style="fill:none;"/>
            <clipPath id="_clip1">
                <rect x="153.834" y="0" width="87.167" height="87.167"/>
            </clipPath>
            <g clip-path="url(#_clip1)">
                <g transform="matrix(1,0,0,1,58.7625,0)">
                    <path d="M100.071,87.167C98.745,87.167 97.473,86.64 96.536,85.703C95.598,84.765 95.071,83.493 95.071,82.167C95.071,72.751 95.071,53.328 95.071,53.328C95.071,50.683 97.215,48.54 99.859,48.54L99.86,48.54C102.504,48.54 104.648,50.683 104.648,53.328L104.648,70.819L165.89,9.576L148.399,9.576C145.754,9.576 143.611,7.433 143.611,4.788L143.611,4.788C143.611,2.144 145.754,0 148.399,-0C155.753,-0 169.759,-0 177.238,-0C178.564,-0 179.836,0.527 180.774,1.464C181.711,2.402 182.238,3.674 182.238,5C182.238,14.416 182.238,33.839 182.238,33.839C182.238,36.484 180.095,38.627 177.45,38.627L177.45,38.627C174.805,38.627 172.662,36.484 172.662,33.839L172.662,16.348L111.419,77.591L128.91,77.591C131.555,77.591 133.698,79.734 133.698,82.379L133.698,82.379C133.698,85.023 131.555,87.167 128.91,87.167L100.071,87.167Z" style="fill:rgb(42,42,50);"/>
                </g>
            </g>
        </g>
    </g>
</svg>
